# xmcd
#
# Track frame offsets: 
#        150
#        12492
#        33979
#        51986
#        64379
#        85096
#        95234
#        106947
#        125047
#        145780
#        162666
#        181662
#        211397
#        229425
#        248086
#        264747
#
# Disc length: 3958 seconds
#
# Revision: 0
# Processed by: cddbd v1.5.2PL0 Copyright (c) Steve Scherf et al.
# Submitted via: ExactAudioCopy v0.99pb5
#
DISCID=ed0f7410
DTITLE=Fire Band                          CD1 - Rhythm` n` Blues
DYEAR=2011
DGENRE=Blues
TTITLE0=01.Spiewaj bluesa
TTITLE1=02.Kolor teczy
TTITLE2=03.Z bluesem w swiat
TTITLE3=04.Pierwszy krok to znak
TTITLE4=05.Twoja gwiazda noca
TTITLE5=06.Sen moj
TTITLE6=07.Nasze dni i wiara
TTITLE7=08.To jest proste
TTITLE8=09.Cien zostaje
TTITLE9=10.Ta droga
TTITLE10=11.Tajemnica w nas
TTITLE11=12.Plomien bluesa
TTITLE12=13.Dzien jak...
TTITLE13=14.Gdzie jest
TTITLE14=15.Niebo dla Ciebie
TTITLE15=16.Nocny blues
EXTD=
EXTT0=
EXTT1=
EXTT2=
EXTT3=
EXTT4=
EXTT5=
EXTT6=
EXTT7=
EXTT8=
EXTT9=
EXTT10=
EXTT11=
EXTT12=
EXTT13=
EXTT14=
EXTT15=
PLAYORDER=
